<svg width="16" height="12" viewBox="0 0 16 12" fill="none" xmlns="http://www.w3.org/2000/svg">
<path d="M5.72432 12C5.46319 12.0011 5.21203 11.8907 5.02453 11.6924L0.301952 6.69296C0.207823 6.59271 0.132715 6.4732 0.0809186 6.34128C0.0291219 6.20936 0.0016503 6.06759 7.21792e-05 5.92409C-0.00311498 5.63426 0.0993611 5.35493 0.284957 5.14753C0.470553 4.94014 0.724065 4.82167 0.989725 4.81819C1.25538 4.81472 1.51143 4.92651 1.70153 5.12899L5.72832 9.3901L14.2978 0.310567C14.4881 0.108089 14.7444 -0.00359339 15.0103 8.8218e-05C15.2761 0.00376982 15.5297 0.122514 15.7153 0.330199C15.9009 0.537884 16.0033 0.817496 15.9999 1.10752C15.9965 1.39755 15.8877 1.67424 15.6973 1.87672L6.42411 11.6924C6.23662 11.8907 5.98545 12.0011 5.72432 12Z" fill="white"/>
</svg>
