<svg width="90" height="90" viewBox="0 0 90 90" fill="none" xmlns="http://www.w3.org/2000/svg">
<path d="M78.7222 0.0706356C78.4922 0.156454 78.2851 0.293425 78.1165 0.471074L72.1827 6.37835V6.47765C72.1468 6.50922 72.1124 6.54235 72.0796 6.57696L67.4471 11.0843L62.9178 6.57376C62.7514 6.39744 62.547 6.26088 62.3199 6.17433C62.0928 6.08778 61.849 6.05349 61.6067 6.07401C61.259 6.13765 60.9421 6.31326 60.7047 6.57376L44.1884 22.995C44.0177 23.1405 43.8795 23.32 43.7828 23.5219C43.686 23.7238 43.6329 23.9437 43.6267 24.1672C43.6206 24.3908 43.6616 24.6131 43.7471 24.82C43.8327 25.0268 43.9608 25.2136 44.1233 25.3682C44.2858 25.5228 44.479 25.6419 44.6906 25.7177C44.9021 25.7936 45.1273 25.8245 45.3517 25.8086C45.576 25.7927 45.7945 25.7302 45.993 25.6252C46.1916 25.5202 46.3659 25.375 46.5046 25.199L61.8064 9.98229L65.2308 13.3844L46.8042 31.7053L23.3522 8.47985C23.2962 8.37216 23.2281 8.27114 23.1492 8.17872C23.0876 8.10669 23.0197 8.04022 22.9463 7.9801L18.9195 3.8732C17.428 2.38677 15.363 1.67239 13.3915 1.67239C11.4135 1.67239 9.45491 2.38357 7.95372 3.87641L5.13496 6.77878C3.69361 8.21274 2.88392 10.1572 2.88392 12.1847C2.88392 14.2122 3.69361 16.1567 5.13496 17.5906L9.06189 21.595C9.1489 21.7083 9.25074 21.8096 9.36471 21.8961C9.50372 22.0608 9.67463 22.1958 9.86725 22.2934L33.0229 45.3202L8.3564 69.8463C8.07272 70.1438 7.9146 70.5383 7.9146 70.9483C7.9146 71.3583 8.07272 71.7527 8.3564 72.0503L9.46457 73.1491L4.53256 77.9544C4.37667 78.1038 4.25267 78.2829 4.16798 78.4811C4.08329 78.6792 4.03964 78.8923 4.03964 79.1076C4.03964 79.3229 4.08329 79.536 4.16798 79.7342C4.25267 79.9323 4.37667 80.1115 4.53256 80.2609L5.84046 81.5583L0 87.4656L2.31943 89.7689L8.15667 83.8616L9.56444 85.2648C9.71464 85.4193 9.89458 85.5422 10.0935 85.6261C10.2925 85.71 10.5064 85.7533 10.7225 85.7533C10.9387 85.7533 11.1526 85.71 11.3515 85.6261C11.5505 85.5422 11.7304 85.4193 11.8806 85.2648L16.7128 80.357L17.0156 80.6581C17.1658 80.8122 17.3455 80.9346 17.5442 81.0183C17.7428 81.1019 17.9564 81.145 18.1721 81.145C18.3878 81.145 18.6014 81.1019 18.8 81.0183C18.9987 80.9346 19.1784 80.8122 19.3286 80.6581L43.8952 56.1321L69.4638 81.6608C69.5254 81.7329 69.5933 81.7993 69.6667 81.8594L69.7634 81.962C69.7963 81.9955 69.8307 82.0275 69.8664 82.0581C69.8653 82.0922 69.8653 82.1264 69.8664 82.1606C69.8997 82.1616 69.933 82.1616 69.9663 82.1606C70.1148 82.291 70.2863 82.3931 70.4721 82.4617L87.6842 88.0678C87.9641 88.1535 88.2621 88.1617 88.5463 88.0916C88.8305 88.0214 89.0901 87.8755 89.2971 87.6696C89.5042 87.4637 89.6509 87.2056 89.7215 86.923C89.792 86.6403 89.7838 86.3439 89.6976 86.0657L84.0601 69.2472C84.0226 69.0695 83.9551 68.8995 83.8603 68.7443C83.8613 68.7122 83.8613 68.6802 83.8603 68.6482C83.8615 68.614 83.8615 68.5798 83.8603 68.5457C83.826 68.5446 83.7916 68.5446 83.7573 68.5457C83.7583 68.5126 83.7583 68.4794 83.7573 68.4464C83.7251 68.4454 83.6928 68.4454 83.6606 68.4464C83.6617 68.4122 83.6617 68.378 83.6606 68.3438C83.521 68.1777 83.3489 68.0415 83.1549 67.9434L57.6862 42.5171L82.9519 17.3888C83.0253 17.3287 83.0932 17.2622 83.1549 17.1902V17.0877C83.2283 17.0276 83.2962 16.9611 83.3578 16.8891L88.9953 11.3822C89.1502 11.2329 89.2734 11.0542 89.3575 10.8566C89.4416 10.659 89.4849 10.4467 89.4849 10.2322C89.4849 10.0176 89.4416 9.80529 89.3575 9.60773C89.2734 9.41018 89.1502 9.23143 88.9953 9.08211L80.3329 0.467871C80.1259 0.262531 79.8667 0.117075 79.5829 0.0470956C79.2992 -0.0228834 79.0016 -0.0147459 78.7222 0.0706356ZM79.2247 3.87641L85.5677 10.1809L81.7406 13.8874L75.5007 7.67897L79.2247 3.87641ZM13.3883 4.77339C14.5319 4.77339 15.7206 5.29236 16.6097 6.17653L19.8311 9.28073L10.5695 18.4908L7.34809 15.2873C6.92564 14.8765 6.58998 14.3859 6.36082 13.8443C6.13166 13.3027 6.01361 12.721 6.01361 12.1335C6.01361 11.5459 6.13166 10.9642 6.36082 10.4226C6.58998 9.88102 6.92564 9.39042 7.34809 8.9796L10.2667 6.17653C11.1558 5.29236 12.2447 4.77659 13.3883 4.77659V4.77339ZM73.1813 9.9855L79.5243 16.29L76.0999 19.6953L69.7601 13.3876L73.1813 9.9855ZM22.041 11.4847L44.4912 33.9093L41.0668 37.3146L18.6199 14.8901L22.041 11.4847ZM67.4471 15.6877L73.89 21.8961L55.3668 40.3163L49.1236 34.1079C49.0928 34.0735 49.0606 34.0403 49.027 34.0086L67.4471 15.6877ZM16.4068 17.0909L38.8569 39.5155L35.2328 43.1162L12.7826 20.6916L16.4068 17.0909ZM46.8106 36.2094L53.1504 42.5171L18.1206 77.256L11.7808 70.9483L46.8106 36.2094ZM55.3668 44.718L80.1331 69.3465L76.6089 72.8512L51.9424 48.1233L55.3668 44.718ZM49.7293 50.4298L74.3926 75.1545L70.9714 78.5598L46.205 53.9312L49.7293 50.4298ZM81.7439 72.3514L85.6676 83.9641L73.9899 80.0623L81.7439 72.3514ZM11.4747 75.6574L14.1936 78.358L10.7693 81.8626L7.9505 79.1621L11.4747 75.6574Z" fill="white"/>
</svg>
