<svg width="105" height="105" viewBox="0 0 105 105" fill="none" xmlns="http://www.w3.org/2000/svg">
<path d="M45.103 0C41.1987 0 37.9908 3.21318 37.9908 7.11816V9.62226C36.0025 10.2927 34.0663 11.1025 32.1906 12.0429L30.401 10.2529C27.6404 7.49199 23.0866 7.49199 20.326 10.2529L10.2697 20.3343C7.50913 23.0953 7.50916 27.65 10.2697 30.411L12.0361 32.1639C11.1014 34.0484 10.2975 35.9824 9.63446 37.979H7.11226C3.208 37.979 0 41.2107 0 45.1157V59.3473C0 63.2523 3.208 66.4794 7.11226 66.4794H9.63446C10.3046 68.4613 11.1164 70.3922 12.0547 72.262L10.2697 74.052C7.50916 76.813 7.50913 81.3677 10.2697 84.1287L20.326 94.2054C23.0866 96.9664 27.6404 96.9664 30.401 94.2054L32.1721 92.434C34.0535 93.3669 35.9978 94.1742 37.9908 94.8361V97.3448C37.9908 101.25 41.1987 104.458 45.103 104.458H59.3507C63.2549 104.458 66.463 101.25 66.463 97.3448V94.8361C68.4544 94.1645 70.3892 93.3626 72.2678 92.4201L74.0528 94.2054C76.8133 96.9664 81.3487 96.9665 84.1092 94.2054L94.1887 84.1287C96.9493 81.3677 96.9493 76.813 94.1887 74.052L92.4176 72.2806C93.3493 70.4005 94.158 68.4708 94.8193 66.4794H97.3229C101.227 66.4794 104.458 63.2523 104.458 59.3473V45.1157C104.458 41.2107 101.227 37.979 97.3229 37.979H94.8007C94.1318 35.9979 93.3359 34.0656 92.3991 32.1963L94.1887 30.411V30.392C96.9349 27.6296 96.9445 23.09 94.1887 20.3338L84.1092 10.2525C81.3487 7.49146 76.8133 7.49153 74.0528 10.2525L72.2817 12.0239C70.3974 11.089 68.4591 10.2849 66.463 9.62183V7.11816C66.463 3.21318 63.2549 0 59.3507 0H45.103ZM45.103 4.75317H59.3507C60.7068 4.75317 61.7153 5.76174 61.7153 7.11816V11.1989C61.7125 11.7168 61.8791 12.2214 62.1896 12.6358C62.5001 13.0502 62.9376 13.3517 63.4354 13.4944C66.3086 14.3189 69.0855 15.461 71.7067 16.8981C72.1571 17.1447 72.6752 17.2388 73.1834 17.166C73.6917 17.0933 74.1626 16.8577 74.5257 16.4946L77.4003 13.6196C78.3595 12.6602 79.8072 12.6603 80.7663 13.6196L90.8412 23.6777C91.8004 24.6371 91.8004 26.085 90.8412 27.0444C90.8349 27.0443 90.8286 27.0443 90.8222 27.0444L87.9291 29.9519C87.5651 30.3154 87.3289 30.7873 87.2561 31.2966C87.1834 31.8059 87.278 32.3251 87.5257 32.776C88.9728 35.3878 90.1239 38.1641 90.9613 41.0303C91.1067 41.5224 91.4075 41.9543 91.8189 42.2611C92.2302 42.5679 92.7298 42.7331 93.2429 42.7321H97.3229C98.6791 42.7321 99.706 43.7593 99.706 45.1157V59.3473C99.706 60.7037 98.6791 61.7309 97.3229 61.7309H93.2429C92.7281 61.7308 92.2272 61.8982 91.8157 62.2076C91.4043 62.5171 91.1046 62.952 90.9618 63.4467C90.1374 66.3204 88.9815 69.0978 87.5447 71.7195C87.297 72.1704 87.2024 72.6895 87.2751 73.1988C87.3479 73.7082 87.584 74.1801 87.9481 74.5436L90.8227 77.414C90.829 77.414 90.8354 77.414 90.8417 77.414C91.8009 78.3734 91.8009 79.8027 90.8417 80.7621L80.7668 90.8434C79.8076 91.8027 78.36 91.8028 77.4007 90.8434L74.4937 87.9313C74.1281 87.5701 73.6552 87.3374 73.1461 87.268C72.6369 87.1986 72.119 87.2963 71.6701 87.5464C69.0587 88.9937 66.3015 90.145 63.4359 90.9826C62.9412 91.1243 62.5059 91.423 62.1957 91.8337C61.8854 92.2444 61.717 92.7447 61.7158 93.2594V97.3448C61.7158 98.7013 60.7072 99.7098 59.3511 99.7098H45.103C43.7468 99.7098 42.7199 98.7013 42.7199 97.3448V93.2409C42.7189 92.7268 42.5512 92.2269 42.2418 91.8163C41.9325 91.4057 41.4983 91.1066 41.0044 90.964C38.1312 90.1394 35.3728 89.002 32.7516 87.5649C32.3008 87.3171 31.7817 87.2225 31.2725 87.2952C30.7633 87.368 30.2915 87.6042 29.928 87.9684L27.0396 90.8434C26.0803 91.8028 24.6513 91.8028 23.6921 90.8434L13.6125 80.7621C12.6533 79.8027 12.6533 78.3734 13.6125 77.414L16.5242 74.5065C16.8884 74.1398 17.1231 73.6642 17.1925 73.152C17.262 72.6398 17.1624 72.1189 16.909 71.6685C15.4604 69.0568 14.3122 66.2945 13.4734 63.4281C13.3275 62.9376 13.027 62.5075 12.6168 62.2016C12.2066 61.8958 11.7086 61.7307 11.1969 61.7309H7.11226C5.7561 61.7309 4.74769 60.7037 4.74769 59.3473V45.1157C4.74769 43.7592 5.7561 42.7321 7.11226 42.7321H11.2155C11.7301 42.7309 12.2304 42.5624 12.641 42.2521C13.0515 41.9418 13.3502 41.5065 13.492 41.0117C14.3164 38.1379 15.4537 35.3606 16.8904 32.7389C17.1371 32.2885 17.231 31.7703 17.1583 31.262C17.0856 30.7537 16.8501 30.2826 16.4871 29.9194L13.6125 27.0444C12.6533 26.085 12.6533 24.6371 13.6125 23.6777L23.6921 13.6196C24.6513 12.6602 26.0803 12.6602 27.0396 13.6196L29.9466 16.5132C30.311 16.8805 30.7854 17.1186 31.2976 17.1915C31.8098 17.2643 32.3318 17.1678 32.7841 16.9166C35.3954 15.4693 38.1573 14.318 41.023 13.4804C41.5141 13.3343 41.9448 13.0331 42.2506 12.6218C42.5565 12.2106 42.7211 11.7114 42.7199 11.1989V7.11816C42.7199 5.76174 43.7468 4.75317 45.103 4.75317ZM52.2199 18.9802C45.1089 18.9802 38.5075 21.2315 33.0993 25.0457L35.8348 28.9178C40.4724 25.6471 46.1045 23.7334 52.2199 23.7334C67.9805 23.7334 80.7107 36.4658 80.7107 52.2292C80.7107 67.9925 67.9805 80.7296 52.2199 80.7296C36.4593 80.7296 23.7431 67.9925 23.7431 52.2292C23.7431 44.5605 26.7482 37.6334 31.6621 32.5117L28.245 29.2192C22.5176 35.1889 18.9954 43.312 18.9954 52.2292C18.9954 70.5588 33.8935 85.4596 52.2199 85.4596C70.5463 85.4596 85.463 70.5588 85.463 52.2292C85.463 33.8995 70.5463 18.9802 52.2199 18.9802ZM64.0381 40.2883C64.0118 40.2894 63.9855 40.291 63.9593 40.293C63.9128 40.298 63.8664 40.3044 63.8202 40.3121C63.8202 40.3121 54.8451 41.5522 47.4536 44.9215C43.7579 46.6061 40.2668 48.7779 38.6537 52.3179C37.8472 54.0879 37.656 56.229 38.2875 58.3138C38.919 60.3987 40.2651 62.411 42.335 64.4813C44.405 66.5516 46.4355 67.9165 48.52 68.5482C50.6045 69.1798 52.7452 68.9885 54.5149 68.1818C58.0543 66.5685 60.2071 63.0628 61.8915 59.3665C65.2601 51.9737 66.5186 42.9924 66.5186 42.9924C66.5677 42.645 66.5393 42.2909 66.4353 41.9558C66.3313 41.6207 66.1543 41.3128 65.9171 41.0543C65.6799 40.7958 65.3884 40.5931 65.0635 40.4607C64.7386 40.3284 64.3884 40.2691 64.0381 40.2883ZM60.7695 46.0617C60.2704 48.779 59.7899 52.5489 57.5796 57.3997C56.1105 60.6236 54.1851 63.098 52.5352 63.8501C51.7102 64.2262 50.9829 64.3154 49.9063 63.9892C49.2392 63.7872 48.4186 63.3581 47.5 62.6815L53.9539 56.2265L50.5879 52.8784L44.1433 59.3242C43.4649 58.4083 43.0281 57.5922 42.8265 56.9267C42.5003 55.8499 42.5896 55.1225 42.9657 54.2974C43.7176 52.6472 46.2101 50.7214 49.4335 49.2521C54.2834 47.0414 58.0526 46.5608 60.7695 46.0617Z" fill="white"/>
</svg>
