<svg width="81" height="102" viewBox="0 0 81 102" fill="none" xmlns="http://www.w3.org/2000/svg">
<path d="M27.5345 19.0788C27.5345 17.4032 27.0376 15.7652 26.1067 14.3719C25.1758 12.9787 23.8526 11.8928 22.3045 11.2516C20.7565 10.6104 19.053 10.4426 17.4096 10.7695C15.7662 11.0964 14.2566 11.9033 13.0718 13.0881C11.8869 14.2729 11.08 15.7825 10.7531 17.426C10.4262 19.0694 10.594 20.7728 11.2352 22.3209C11.8765 23.869 12.9624 25.1921 14.3556 26.1231C15.7488 27.054 17.3868 27.5509 19.0624 27.5509C21.3094 27.5509 23.4643 26.6583 25.0531 25.0694C26.6419 23.4806 27.5345 21.3257 27.5345 19.0788ZM19.0624 23.3148C18.2246 23.3148 17.4056 23.0664 16.709 22.6009C16.0124 22.1355 15.4694 21.4739 15.1488 20.6998C14.8282 19.9258 14.7443 19.0741 14.9078 18.2524C15.0712 17.4307 15.4747 16.6759 16.0671 16.0834C16.6595 15.491 17.4143 15.0876 18.236 14.9241C19.0577 14.7607 19.9094 14.8446 20.6835 15.1652C21.4575 15.4858 22.1191 16.0287 22.5846 16.7254C23.05 17.422 23.2985 18.241 23.2985 19.0788C23.2985 20.2022 22.8522 21.2797 22.0578 22.0741C21.2633 22.8685 20.1859 23.3148 19.0624 23.3148Z" fill="white"/>
<path d="M80.4848 33.6932C80.3365 9.14538 53.6495 -8.09531 30.8384 3.91387C30.0947 3.25877 29.1449 2.88517 28.1542 2.85809C27.1635 2.831 26.1946 3.15213 25.4163 3.76561C25.3311 2.74123 24.863 1.78655 24.1055 1.09179C23.3479 0.397024 22.3564 0.013172 21.3285 0.0167099H16.7959C15.768 0.013172 14.7765 0.397024 14.0189 1.09179C13.2614 1.78655 12.7934 2.74123 12.7081 3.76561C11.9102 3.12956 10.9095 2.80292 9.89003 2.84572C8.87052 2.88853 7.90073 3.2979 7.15893 3.99859L3.9819 7.1968C3.25725 7.92133 2.83115 8.89159 2.788 9.91541C2.74486 10.9392 3.0878 11.9419 3.74892 12.7248C2.72454 12.81 1.76987 13.2781 1.0751 14.0356C0.380339 14.7932 -0.0035136 15.7847 2.42393e-05 16.8126V21.3452C-0.0035136 22.3731 0.380339 23.3646 1.0751 24.1222C1.76987 24.8797 2.72454 25.3477 3.74892 25.433C3.1312 26.1782 2.78736 27.1126 2.77463 28.0805C2.77463 30.1985 3.85482 30.8551 7.18011 34.1804C7.92191 34.8811 8.8917 35.2904 9.91121 35.3332C10.9307 35.376 11.9314 35.0494 12.7293 34.4134C12.7896 38.5041 13.586 42.5505 15.0803 46.359C19.6764 58.0505 27.3437 58.8129 29.5676 73.7662C28.3636 74.9016 27.6502 76.462 27.579 78.1154C27.5078 79.7688 28.0844 81.3847 29.1863 82.6195C28.3705 83.5316 27.8354 84.6599 27.6453 85.8687C27.4553 87.0776 27.6183 88.3157 28.1149 89.4341C28.6115 90.5525 29.4205 91.5038 30.4447 92.1735C31.4689 92.8433 32.6646 93.2031 33.8883 93.2096H36.2182C36.7043 95.6036 38.0031 97.7559 39.8945 99.3018C41.7859 100.848 44.1536 101.692 46.5965 101.692C49.0393 101.692 51.407 100.848 53.2984 99.3018C55.1899 97.7559 56.4887 95.6036 56.9748 93.2096H59.3046C60.5283 93.2031 61.7241 92.8433 62.7483 92.1735C63.7724 91.5038 64.5814 90.5525 65.078 89.4341C65.5746 88.3157 65.7377 87.0776 65.5476 85.8687C65.3575 84.6599 64.8224 83.5316 64.0066 82.6195C65.1043 81.3729 65.6702 79.746 65.5831 78.0872C65.496 76.4285 64.7628 74.8698 63.5406 73.745C66.3576 55.5724 80.5907 54.8946 80.4848 33.6932ZM10.0818 31.0669L7.07421 28.0593C7.60525 27.486 7.96082 26.7724 8.09879 26.0032C8.23676 25.234 8.15135 24.4414 7.85269 23.7192C7.55402 22.9971 7.05461 22.3757 6.41362 21.9286C5.77263 21.4816 5.01694 21.2277 4.23606 21.1969V16.9609C5.01694 16.9301 5.77263 16.6762 6.41362 16.2291C7.05461 15.7821 7.55402 15.1607 7.85269 14.4385C8.15135 13.7164 8.23676 12.9238 8.09879 12.1546C7.96082 11.3853 7.60525 10.6718 7.07421 10.0985L10.0818 7.0909C10.6551 7.62194 11.3687 7.9775 12.1379 8.11548C12.9071 8.25345 13.6997 8.16804 14.4219 7.86937C15.144 7.5707 15.7654 7.07129 16.2125 6.43031C16.6595 5.78932 16.9134 5.03362 16.9442 4.25275H21.1802C21.211 5.03362 21.4649 5.78932 21.912 6.43031C22.359 7.07129 22.9804 7.5707 23.7026 7.86937C24.4247 8.16804 25.2173 8.25345 25.9865 8.11548C26.7557 7.9775 27.4693 7.62194 28.0426 7.0909L31.0502 10.0985C30.5192 10.6718 30.1636 11.3853 30.0256 12.1546C29.8877 12.9238 29.9731 13.7164 30.2717 14.4385C30.5704 15.1607 31.0698 15.7821 31.7108 16.2291C32.3518 16.6762 33.1075 16.9301 33.8883 16.9609V21.1969C33.1075 21.2277 32.3518 21.4816 31.7108 21.9286C31.0698 22.3757 30.5704 22.9971 30.2717 23.7192C29.9731 24.4414 29.8877 25.234 30.0256 26.0032C30.1636 26.7724 30.5192 27.486 31.0502 28.0593L28.0426 31.0669C27.4693 30.5358 26.7557 30.1803 25.9865 30.0423C25.2173 29.9043 24.4247 29.9897 23.7026 30.2884C22.9804 30.5871 22.359 31.0865 21.912 31.7275C21.4649 32.3685 21.211 33.1242 21.1802 33.905H16.9442C16.9134 33.1242 16.6595 32.3685 16.2125 31.7275C15.7654 31.0865 15.144 30.5871 14.4219 30.2884C13.6997 29.9897 12.9071 29.9043 12.1379 30.0423C11.3687 30.1803 10.6551 30.5358 10.0818 31.0669ZM40.6025 93.2096H52.5905C52.1539 94.4507 51.3427 95.5257 50.2691 96.2862C49.1954 97.0467 47.9122 97.4551 46.5965 97.4551C45.2808 97.4551 43.9975 97.0467 42.9239 96.2862C41.8502 95.5257 41.0391 94.4507 40.6025 93.2096ZM59.3046 88.9735H33.8883C33.3266 88.9735 32.7879 88.7504 32.3907 88.3532C31.9935 87.956 31.7703 87.4173 31.7703 86.8555C31.7703 86.2938 31.9935 85.7551 32.3907 85.3579C32.7879 84.9607 33.3266 84.7375 33.8883 84.7375H59.3046C59.8663 84.7375 60.4051 84.9607 60.8023 85.3579C61.1995 85.7551 61.4226 86.2938 61.4226 86.8555C61.4226 87.4173 61.1995 87.956 60.8023 88.3532C60.4051 88.7504 59.8663 88.9735 59.3046 88.9735ZM59.3046 80.5015H33.8883C33.3266 80.5015 32.7879 80.2783 32.3907 79.8811C31.9935 79.4839 31.7703 78.9452 31.7703 78.3835C31.7703 77.8217 31.9935 77.283 32.3907 76.8858C32.7879 76.4886 33.3266 76.2654 33.8883 76.2654H59.3046C59.8663 76.2654 60.4051 76.4886 60.8023 76.8858C61.1995 77.283 61.4226 77.8217 61.4226 78.3835C61.4226 78.9452 61.1995 79.4839 60.8023 79.8811C60.4051 80.2783 59.8663 80.5015 59.3046 80.5015ZM33.8883 72.0294V46.359L46.5965 44.7705V72.0294H33.8883ZM50.1124 40.7886C49.3287 40.0685 48.7569 40.2379 46.5965 40.5133V31.787H59.3046V72.0294H50.8325C50.8325 40.0473 51.1502 41.6782 50.1124 40.7886ZM63.5406 61.1216V29.669C63.5406 29.1073 63.3175 28.5685 62.9203 28.1713C62.5231 27.7741 61.9843 27.551 61.4226 27.551H44.4785C43.9167 27.551 43.378 27.7741 42.9808 28.1713C42.5836 28.5685 42.3604 29.1073 42.3604 29.669V41.0428L31.5162 42.3771C30.9996 42.4395 30.524 42.69 30.1802 43.0806C29.8365 43.4713 29.6486 43.9748 29.6523 44.4951V60.8886C25.2892 52.9037 19.0622 50.2985 17.2831 38.1411H21.3285C22.3564 38.1446 23.3479 37.7608 24.1055 37.066C24.863 36.3712 25.3311 35.4165 25.4163 34.3922C26.2142 35.0282 27.2149 35.3549 28.2344 35.3121C29.2539 35.2693 30.2237 34.8599 30.9655 34.1592L34.1637 30.961C34.8853 30.2337 35.3075 29.262 35.3468 28.2382C35.386 27.2145 35.0394 26.2133 34.3755 25.433C35.3999 25.3477 36.3545 24.8797 37.0493 24.1222C37.7441 23.3646 38.1279 22.3731 38.1244 21.3452V16.8126C38.1279 15.7847 37.7441 14.7932 37.0493 14.0356C36.3545 13.2781 35.3999 12.81 34.3755 12.7248C35.0668 11.9167 35.414 10.87 35.3427 9.80892C35.2714 8.74787 34.7874 7.75696 33.9942 7.04854C38.505 4.97307 43.4628 4.05758 48.4173 4.38525C53.3718 4.71292 58.1659 6.27337 62.364 8.9248C66.5621 11.5762 70.0312 15.2346 72.456 19.5676C74.8808 23.9005 76.1846 28.7707 76.2488 33.7356C76.3027 40.9815 73.6864 47.9936 68.8992 53.4332C66.8331 55.789 65.0358 58.3677 63.5406 61.1216Z" fill="white"/>
</svg>
