<svg width="109" height="88" viewBox="0 0 109 88" fill="none" xmlns="http://www.w3.org/2000/svg">
<path d="M0.207718 29.4541C0.233683 29.5576 0.311577 29.6094 0.363507 29.7129C0.467366 29.8941 0.54526 30.0753 0.675083 30.2306L52.6046 87.1718C52.6305 87.2235 52.7084 87.2235 52.7344 87.2753C52.9162 87.4565 53.1239 87.5859 53.3316 87.7153C53.4095 87.7671 53.4874 87.7929 53.5653 87.8447C53.8768 87.9224 54.1884 88 54.526 88C54.8635 88 55.1751 87.9223 55.4607 87.7929C55.5386 87.7671 55.6165 87.7153 55.6944 87.6635C55.9281 87.56 56.1098 87.4047 56.2916 87.2235C56.3435 87.1718 56.3954 87.1718 56.4214 87.12L108.351 30.1788C108.481 30.0235 108.585 29.8424 108.662 29.6612C108.714 29.5835 108.792 29.5059 108.818 29.4024C108.948 29.0918 109 28.7812 109 28.4706C109 28.4447 109 28.4447 109 28.4447C109 28.3671 108.974 28.2894 108.948 28.2118C108.922 27.9788 108.896 27.7459 108.818 27.5388C108.766 27.4094 108.688 27.3059 108.611 27.1765C108.533 27.0729 108.507 26.9435 108.429 26.8141L87.657 0.931765C87.631 0.905883 87.5791 0.88 87.5531 0.854117C87.3973 0.672941 87.1896 0.543529 86.9819 0.414117C86.878 0.33647 86.7742 0.258823 86.6703 0.207059C86.6444 0.181176 86.6184 0.155294 86.5924 0.155294C86.3328 0.0517646 86.0991 0.0258829 85.8395 0.0258829C85.8135 0.0517653 85.7616 0 85.6837 0H23.3683C23.2904 0 23.2125 0.0517647 23.1346 0.0517647C22.9009 0.077647 22.6413 0.0776475 22.4076 0.181177C22.3816 0.181177 22.3556 0.232942 22.3297 0.232942C22.1999 0.284706 22.122 0.362353 22.0181 0.44C21.8104 0.569412 21.6027 0.698824 21.4469 0.88C21.4209 0.905883 21.369 0.931764 21.343 0.957647L0.571225 26.84C0.49333 26.9435 0.441401 27.0729 0.389471 27.2024C0.311577 27.3318 0.233683 27.4353 0.181753 27.5647C0.103859 27.7976 0.0519294 28.0047 0.0519294 28.2376C0.0259647 28.3153 0 28.3929 0 28.4706C0 28.4965 0 28.4965 0 28.4965C0 28.8329 0.077894 29.1435 0.207718 29.4541ZM8.46451 31.0588H31.9366L47.5934 73.9459L8.46451 31.0588ZM54.526 77.8282L37.4671 31.0588H71.5848L54.526 77.8282ZM61.4586 73.9459L77.1153 31.0588H100.587L61.4586 73.9459ZM86.4366 7.66118L101.055 25.8824H79.1405L86.4366 7.66118ZM81.8409 5.17647L74.5448 23.3976L59.9266 5.17647H81.8409ZM69.8971 25.8824H39.1548L54.526 6.72941L69.8971 25.8824ZM49.1253 5.17647L34.5071 23.3976L27.2111 5.17647H49.1253ZM22.6153 7.66118L29.9114 25.8824H7.99714L22.6153 7.66118Z" fill="white"/>
</svg>
