<svg width="94" height="95" viewBox="0 0 94 95" fill="none" xmlns="http://www.w3.org/2000/svg">
<path d="M67.4545 22H26.5455C24.0386 22 22 24.0794 22 26.6364V68.3636C22 70.9206 24.0386 73 26.5455 73H67.4545C69.9614 73 72 70.9206 72 68.3636V26.6364C72 24.0794 69.9614 22 67.4545 22ZM26.5455 68.3636V26.6364H67.4545V68.3636H26.5455Z" fill="white"/>
<path d="M91.7619 36.1905C92.9973 36.1905 94 35.1771 94 33.9286C94 32.68 92.9973 31.6667 91.7619 31.6667H85.0476V22.619H91.7619C92.9973 22.619 94 21.6057 94 20.3571C94 19.1086 92.9973 18.0952 91.7619 18.0952H84.8216C83.9286 13.671 80.473 10.1786 76.0952 9.27607V2.2619C76.0952 1.01333 75.0926 0 73.8571 0C72.6217 0 71.619 1.01333 71.619 2.2619V9.04762H62.6667V2.2619C62.6667 1.01333 61.664 0 60.4286 0C59.1931 0 58.1905 1.01333 58.1905 2.2619V9.04762H49.2381V2.2619C49.2381 1.01333 48.2354 0 47 0C45.7646 0 44.7619 1.01333 44.7619 2.2619V9.04762H35.8095V2.2619C35.8095 1.01333 34.8069 0 33.5714 0C32.336 0 31.3333 1.01333 31.3333 2.2619V9.04762H22.381V2.2619C22.381 1.01333 21.3783 0 20.1429 0C18.9074 0 17.9048 1.01333 17.9048 2.2619V9.27607C13.527 10.1786 10.0714 13.671 9.17843 18.0952H2.2381C1.00267 18.0952 0 19.1086 0 20.3571C0 21.6057 1.00267 22.619 2.2381 22.619H8.95238V31.6667H2.2381C1.00267 31.6667 0 32.68 0 33.9286C0 35.1771 1.00267 36.1905 2.2381 36.1905H8.95238V45.2381H2.2381C1.00267 45.2381 0 46.2514 0 47.5C0 48.7486 1.00267 49.7619 2.2381 49.7619H8.95238V58.8095H2.2381C1.00267 58.8095 0 59.8229 0 61.0714C0 62.32 1.00267 63.3333 2.2381 63.3333H8.95238V72.381H2.2381C1.00267 72.381 0 73.3943 0 74.6429C0 75.8914 1.00267 76.9048 2.2381 76.9048H9.17843C10.0714 81.329 13.527 84.8214 17.9048 85.7239V92.7381C17.9048 93.9867 18.9074 95 20.1429 95C21.3783 95 22.381 93.9867 22.381 92.7381V85.9524H31.3333V92.7381C31.3333 93.9867 32.336 95 33.5714 95C34.8069 95 35.8095 93.9867 35.8095 92.7381V85.9524H44.7619V92.7381C44.7619 93.9867 45.7646 95 47 95C48.2354 95 49.2381 93.9867 49.2381 92.7381V85.9524H58.1905V92.7381C58.1905 93.9867 59.1931 95 60.4286 95C61.664 95 62.6667 93.9867 62.6667 92.7381V85.9524H71.619V92.7381C71.619 93.9867 72.6217 95 73.8571 95C75.0926 95 76.0952 93.9867 76.0952 92.7381V85.7239C80.473 84.8214 83.9286 81.329 84.8216 76.9048H91.7619C92.9973 76.9048 94 75.8914 94 74.6429C94 73.3943 92.9973 72.381 91.7619 72.381H85.0476V63.3333H91.7619C92.9973 63.3333 94 62.32 94 61.0714C94 59.8229 92.9973 58.8095 91.7619 58.8095H85.0476V49.7619H91.7619C92.9973 49.7619 94 48.7486 94 47.5C94 46.2514 92.9973 45.2381 91.7619 45.2381H85.0476V36.1905H91.7619ZM80.5714 74.6429C80.5714 78.384 77.559 81.4286 73.8571 81.4286H20.1429C16.441 81.4286 13.4286 78.384 13.4286 74.6429V20.3571C13.4286 16.616 16.441 13.5714 20.1429 13.5714H73.8571C77.559 13.5714 80.5714 16.616 80.5714 20.3571V74.6429Z" fill="white"/>
</svg>
