<svg width="40" height="41" viewBox="0 0 40 41" fill="none" xmlns="http://www.w3.org/2000/svg">
<path d="M28.3597 36.2596C28.3597 36.3565 28.324 36.4494 28.2606 36.5179C28.1971 36.5864 28.1111 36.6249 28.0214 36.6249H4.38967C4.29995 36.6249 4.2139 36.5864 4.15046 36.5179C4.08702 36.4494 4.05138 36.3565 4.05138 36.2596V10.7395C4.05138 10.6426 4.08702 10.5497 4.15046 10.4812C4.2139 10.4127 4.29995 10.3742 4.38967 10.3742H18.926L22.9774 5.99907H4.38967C3.22579 6.00023 2.10988 6.50004 1.28689 7.38879C0.463899 8.27755 0.0010727 9.48262 0 10.7395V36.2596C0.0010727 37.5164 0.463899 38.7215 1.28689 39.6103C2.10988 40.499 3.22579 40.9988 4.38967 41H28.0214C29.1852 40.9988 30.3012 40.499 31.1241 39.6103C31.9471 38.7215 32.41 37.5164 32.411 36.2596V20.5616L28.3597 24.9368V36.2596Z" fill="#D9D9D9"/>
<path d="M38.2126 1.92146C37.073 0.69115 35.5275 0 33.9161 0C32.3047 0 30.7592 0.69115 29.6196 1.92146L13.8618 18.9363C13.5794 19.2418 13.3869 19.6308 13.3088 20.0541L11.8766 27.7893C11.8165 28.1072 11.8227 28.4355 11.8946 28.7505C11.9665 29.0655 12.1024 29.3593 12.2924 29.6106C12.4824 29.8618 12.7218 30.0643 12.9933 30.2033C13.2647 30.3424 13.5614 30.4145 13.8618 30.4144C13.9977 30.4139 14.1333 30.4 14.2669 30.3728L21.4277 28.8262C21.82 28.7412 22.1802 28.5327 22.4629 28.2268L38.2187 11.212C38.7839 10.602 39.2322 9.87761 39.5379 9.08028C39.8435 8.28295 40.0006 7.42834 40 6.56538C39.9994 5.70242 39.8413 4.84806 39.5346 4.05119C39.2279 3.25433 38.7786 2.53061 38.2126 1.92146ZM35.3483 5.01467C35.5366 5.21784 35.686 5.4591 35.788 5.72466C35.8899 5.99023 35.9424 6.27489 35.9424 6.56237C35.9424 6.84985 35.8899 7.13451 35.788 7.40007C35.686 7.66564 35.5366 7.9069 35.3483 8.11006L34.2625 9.28041L31.3982 6.1872L32.484 5.01467C32.8638 4.60457 33.379 4.37418 33.9161 4.37418C34.4533 4.37418 34.9684 4.60457 35.3483 5.01467ZM20.026 24.6568L16.4445 25.4312L17.1616 21.5614L28.5339 9.28041L31.3982 12.3736L20.026 24.6568Z" fill="#D9D9D9"/>
</svg>
