<svg width="39" height="32" viewBox="0 0 39 32" fill="none" xmlns="http://www.w3.org/2000/svg">
<path d="M7.92084 3.68457H11.5312L12.3941 5.96295H29.1961L25.1989 16.0146H15.4391L14.4373 18.1384H27.1529L27.1033 20.5095H11.0154L13.6736 14.8497L10.1525 6.11759H7.92084V3.68457Z" fill="white"/>
<path d="M14.4971 25.7148C15.7241 25.7148 16.7188 24.6809 16.7188 23.4055C16.7188 22.1301 15.7241 21.0962 14.4971 21.0962C13.27 21.0962 12.2753 22.1301 12.2753 23.4055C12.2753 24.6809 13.27 25.7148 14.4971 25.7148Z" fill="white"/>
<path d="M23.4537 25.7148C24.6808 25.7148 25.6755 24.6809 25.6755 23.4055C25.6755 22.1301 24.6808 21.0962 23.4537 21.0962C22.2267 21.0962 21.232 22.1301 21.232 23.4055C21.232 24.6809 22.2267 25.7148 23.4537 25.7148Z" fill="white"/>
</svg>
